<?xml version="1.0" encoding="UTF-8"?>
<svg id="Layer_1" data-name="Layer 1" xmlns="http://www.w3.org/2000/svg" viewBox="0 0 216 216">
  <path d="M185.89,71.27c-5.75-22.53-30.18-12.88-47.1-18.55-8.69-2.92-16.44-8.11-24.67-12.15-17.2-8.43-37.12-11.79-55.87-7.87-18.73,3.9-36.07,15.45-45.59,32.07-6.3,10.99-8.71,24.34-7.24,37.06,0,.04.02.08.02.12l.58,3.8c4.12.3,8.29.28,12.45-.1,5.29-.48,9.74-1.55,13.58-3.22,7.53-3.3,13.48-9.34,18.75-14.67l1.73-1.75,10.28-10.44c1.37-1.39,2.78-2.82,4.45-3.44,1.81-.7,3.94-.46,6.2-.2,2.27.24,4.63.5,7-.1,1.99-.48,3.76-1.51,5.47-2.49,2.43-1.41,4.55-2.62,6.48-1.93,1.01.36,1.93,1.27,2.82,2.15l11.59,11.45,15.81,15.63c1.17,1.17,2.96,2.92,5.39,3.14,1.67.14,3.1-.46,4.35-.99.2-.08.4-.16.6-.24,2.01-.8,4.04-1.19,6.12-1.27,2.76-1.23,5.59-2.21,8.47-2.92h.02c5.73-1.43,11.69-1.71,17.72-.4,6.34,1.37,11.79,4.41,16.42,8.51h.02c.97.18,1.89.4,2.82.7,3.38,1.09,6.4,2.96,9.27,5.01-5.57-12.17-4.63-23.92-7.95-36.92ZM171.62,79.86c-2.84,0-5.03-2.17-5.03-5.01s2.19-5.03,4.99-5.05c2.8,0,5.07,2.25,5.07,5.03s-2.21,5.03-5.03,5.03Z" style="fill: #aad1d2; stroke-width: 0px;"/>
  <path d="M105.03,75.02c0,1.9-.2,3.76-.61,5.55l-10.41-10.29c-.8-.8-1.63-1.61-2.53-1.93-1.74-.61-3.63.47-5.82,1.74-1.54.89-3.13,1.81-4.92,2.24-2.13.54-4.25.31-6.29.09-2.03-.24-3.94-.45-5.57.18-1.5.56-2.77,1.84-4,3.09l-9.24,9.38c-1.32-3.09-2.04-6.49-2.04-10.05,0-14.21,11.5-25.71,25.71-25.71s25.73,11.5,25.73,25.71Z" style="fill: #ffd38b; stroke-width: 0px;"/>
  <g>
    <path d="M139.09,97.28c-10.12,4.47-19.27,11.97-26.56,19.56-4.87,5.07-9.7,10.3-15.31,14.57-4.73,3.58-13.44,4.87-12.55,11.53,1.11,8.61,1.53,16.34,9.34,20.32,3.4,1.73,7.2,3.04,10.68,4.67,1.81,1.61,2.94,3.84,2.68,6.68-3.38-1.31-6.38-2.49-9.72-3.78-.78-.3-1.57-.62-2.39-.93,0,2.23.12,4.55-.04,6.78-2.13-2.45-4.55-4.37-7.67-5.49-.93-.34-8.99-1.57-9.03-1.73-1.39-5.13.72-10.6-.22-15.93-.78-4.53-3.26-8.99-7.38-11.01-5.97-2.94-12.76,1.29-14.26,7.44-.7,2.86-1.07,5.81-1.17,8.77-.08,2.23-.52,5.83.4,7.93,1.81,4.04,8.41,5.9,12.21,7,2.56.74,5.13,1.45,7.54,2.51,1.19.52,2.35,1.15,3.42,1.89.44.3,2.37,1.37,2.56,1.79.8,2.11-5.35.82-6.54.72-2.94-.28-5.88-.54-8.83-.82.2.02.76,5.33.7,5.92-3.96-.68-8.05-2.8-11.95-3.92-.7-.2-9.11-2.82-9.21-2.64,4.14-7.69,2.13-17.52-2.74-24.79-10.7-16.02-28.85-21.43-35.19-41.14-.76-2.41-1.39-4.91-1.83-7.42,4.12.3,8.29.28,12.45-.1,5.29-.48,9.74-1.55,13.58-3.22,7.53-3.3,13.48-9.34,18.75-14.67l1.73-1.75,10.28-10.44c1.37-1.39,2.78-2.82,4.45-3.44,1.81-.7,3.94-.46,6.2-.2,2.27.24,4.63.5,7-.1,1.99-.48,3.76-1.51,5.47-2.49,2.43-1.41,4.55-2.62,6.48-1.93,1.01.36,1.93,1.27,2.82,2.15l11.59,11.45,15.81,15.63c1.17,1.17,2.96,2.92,5.39,3.14,1.67.14,3.1-.46,4.35-.99.2-.08.4-.16.6-.24,2.01-.8,4.04-1.19,6.12-1.27Z" style="fill: #35740f; stroke-width: 0px;"/>
    <path d="M211.28,164.2c-3.52.78-9.98-28.95-11.79-33.84-2.78-7.44-6.58-15.11-11.75-21.53-1.81-2.31-3.8-4.45-6-6.36.97.18,1.89.4,2.82.7,3.38,1.09,6.4,2.96,9.27,5.01.46.99.95,1.97,1.49,2.96.87,1.57,1.69,3.14,2.43,4.73l.02.02c1.35,2.78,2.56,5.55,3.66,8.35,4.04,10.18,6.74,20.58,9.8,31.59.66,2.41-.02,5.83.04,8.37Z" style="fill: #35740f; stroke-width: 0px;"/>
  </g>
</svg>